<svg enable-background="new 0 0 24 24" height="23" width="24" xmlns="http://www.w3.org/2000/svg" style=""><rect id="backgroundrect" width="100%" height="100%" x="0" y="0" fill="none" stroke="none"/><g class="currentLayer" style=""><title>Layer 1</title><path d="m12,0 c-6.630000114440918,0 -12,5.28000020980835 -12,11.791999816894531 c0,5.210999965667725 3.437999963760376,9.630000114440918 8.204999923706055,11.187999725341797 c0.6000000238418579,0.11100000143051147 0.8199999928474426,-0.2540000081062317 0.8199999928474426,-0.5669999718666077 c0,-0.2800000011920929 -0.009999999776482582,-1.0219999551773071 -0.014999999664723873,-2.005000114440918 c-3.3380000591278076,0.7110000252723694 -4.041999816894531,-1.5820000171661377 -4.041999816894531,-1.5820000171661377 c-0.5460000038146973,-1.3609999418258667 -1.3350000381469727,-1.725000023841858 -1.3350000381469727,-1.725000023841858 c-1.0870000123977661,-0.7310000061988831 0.08399999886751175,-0.7160000205039978 0.08399999886751175,-0.7160000205039978 c1.2050000429153442,0.0820000022649765 1.8380000591278076,1.215000033378601 1.8380000591278076,1.215000033378601 c1.0700000524520874,1.8029999732971191 2.809000015258789,1.281999945640564 3.494999885559082,0.9810000061988831 c0.1080000028014183,-0.7630000114440918 0.4169999957084656,-1.281999945640564 0.7599999904632568,-1.5770000219345093 c-2.6649999618530273,-0.29499998688697815 -5.466000080108643,-1.309000015258789 -5.466000080108643,-5.827000141143799 c0,-1.2869999408721924 0.4650000035762787,-2.3389999866485596 1.2350000143051147,-3.1640000343322754 c-0.13500000536441803,-0.2980000078678131 -0.5400000214576721,-1.496999979019165 0.10499999672174454,-3.121000051498413 c0,0 1.0049999952316284,-0.3160000145435333 3.299999952316284,1.2089999914169312 c0.9599999785423279,-0.2619999945163727 1.9800000190734863,-0.3919999897480011 3,-0.39800000190734863 c1.0199999809265137,0.006000000052154064 2.0399999618530273,0.13600000739097595 3,0.39800000190734863 c2.2799999713897705,-1.524999976158142 3.2850000858306885,-1.2089999914169312 3.2850000858306885,-1.2089999914169312 c0.6449999809265137,1.6239999532699585 0.23999999463558197,2.822999954223633 0.11999999731779099,3.121000051498413 c0.7649999856948853,0.824999988079071 1.2300000190734863,1.8769999742507935 1.2300000190734863,3.1640000343322754 c0,4.53000020980835 -2.805000066757202,5.5269999504089355 -5.474999904632568,5.816999912261963 c0.41999998688697815,0.3540000021457672 0.8100000023841858,1.0770000219345093 0.8100000023841858,2.181999921798706 c0,1.5779999494552612 -0.014999999664723873,2.8459999561309814 -0.014999999664723873,3.2290000915527344 c0,0.3089999854564667 0.20999999344348907,0.6779999732971191 0.824999988079071,0.5600000023841858 c4.801000118255615,-1.5479999780654907 8.236000061035156,-5.96999979019165 8.236000061035156,-11.17300033569336 c0,-6.51200008392334 -5.373000144958496,-11.791999816894531 -12,-11.791999816894531 z" fill="#f9e3d0" id="svg_1" class="selected" fill-opacity="1"/></g></svg>