<svg xmlns="http://www.w3.org/2000/svg" data-name="Layer 1" viewBox="0 0 128 128" x="0px" y="0px"><title>Miscellaneous 50 expandlines</title><path d="M72.33,24a2,2,0,0,0,.23,1,2,2,0,0,0,2.71.8l3.68-2a2,2,0,0,0,0-3.51l-3.68-2a2,2,0,0,0-2.71.8,2,2,0,0,0-.23,1H56a2,2,0,0,0,0,4Z"/><path d="M52.72,120.76A2,2,0,0,0,55.67,119H72a2,2,0,0,0,0-4H55.67a2,2,0,0,0-.23-1,2,2,0,0,0-2.71-.8l-3.68,2a2,2,0,0,0,0,3.51Z"/><path d="M39,46V74a4,4,0,0,0,4,4H56v4H52a2,2,0,0,0,0,4H76a2,2,0,0,0,0-4H72V78H85a4,4,0,0,0,4-4V46a4,4,0,0,0-4-4H43A4,4,0,0,0,39,46ZM68,82H60V78h8Zm17-8H43V46H85Z"/><path d="M123.75,18H90.25A4.27,4.27,0,0,0,86,22.29v5.43A4.27,4.27,0,0,0,90.25,32h33.51A4.27,4.27,0,0,0,128,27.71V22.29A4.27,4.27,0,0,0,123.75,18Zm.25,9.71a.27.27,0,0,1-.25.29H90.25a.27.27,0,0,1-.25-.29V22.29a.27.27,0,0,1,.25-.29h33.51a.27.27,0,0,1,.25.29Z"/><path d="M123.75,0H90.25A4.27,4.27,0,0,0,86,4.29V9.71A4.27,4.27,0,0,0,90.25,14h33.51A4.27,4.27,0,0,0,128,9.71V4.29A4.27,4.27,0,0,0,123.75,0ZM124,9.71a.27.27,0,0,1-.25.29H90.25A.27.27,0,0,1,90,9.71V4.29A.27.27,0,0,1,90.25,4h33.51a.27.27,0,0,1,.25.29Z"/><path d="M42,123.71v-5.43A4.27,4.27,0,0,0,37.75,114H4.25A4.27,4.27,0,0,0,0,118.29v5.43A4.27,4.27,0,0,0,4.25,128H37.75A4.27,4.27,0,0,0,42,123.71Zm-38,0v-5.43a.27.27,0,0,1,.25-.29H37.75a.27.27,0,0,1,.25.29v5.43a.27.27,0,0,1-.25.29H4.25A.27.27,0,0,1,4,123.71Z"/><path d="M4.25,110H37.75A4.27,4.27,0,0,0,42,105.71v-5.43A4.27,4.27,0,0,0,37.75,96H4.25A4.27,4.27,0,0,0,0,100.29v5.43A4.27,4.27,0,0,0,4.25,110ZM4,100.29a.27.27,0,0,1,.25-.29H37.75a.27.27,0,0,1,.25.29v5.43a.27.27,0,0,1-.25.29H4.25a.27.27,0,0,1-.25-.29Z"/><path d="M32.89,2.59a8.64,8.64,0,0,0-4.38,1.19A10.9,10.9,0,0,0,9.36,10.47,10.81,10.81,0,0,0,10.89,32H37.11a10.81,10.81,0,0,0,4.44-20.7s0-.07,0-.1A8.64,8.64,0,0,0,32.89,2.59ZM44,21.18A6.86,6.86,0,0,1,37.11,28H10.89a6.81,6.81,0,0,1-1-13.57L13.25,14l.11-3.37A6.82,6.82,0,0,1,20.24,4a6.91,6.91,0,0,1,5.24,2.4l2.18,2.52,2.87-1.68a4.66,4.66,0,0,1,7,3.87v.17l0,2.62L39.93,15A6.83,6.83,0,0,1,44,21.18Z"/><path d="M121.55,107.3s0-.07,0-.1a8.66,8.66,0,0,0-13-7.42,10.9,10.9,0,0,0-19.15,6.69A10.81,10.81,0,0,0,90.89,128h26.22a10.81,10.81,0,0,0,4.44-20.7ZM117.11,124H90.89a6.81,6.81,0,0,1-1-13.57l3.34-.46.11-3.37a6.82,6.82,0,0,1,6.88-6.6,6.91,6.91,0,0,1,5.24,2.4l2.18,2.52,2.87-1.68a4.66,4.66,0,0,1,7,3.87v.17l0,2.62,2.4,1.07a6.81,6.81,0,0,1-2.82,13Z"/><path d="M19,36a2,2,0,0,0-2,2V90a2,2,0,0,0,4,0V66h5.36a2,2,0,0,0,2.79,1.84l4.64-2a2,2,0,0,0,0-3.67l-4.64-2A2,2,0,0,0,26.36,62H21V38A2,2,0,0,0,19,36Z"/><path d="M109,92a2,2,0,0,0,2-2V38a2,2,0,0,0-4,0V62h-5.36a2,2,0,0,0-2.79-1.84l-4.64,2a2,2,0,0,0,0,3.67l4.64,2A2,2,0,0,0,101.64,66H107V90A2,2,0,0,0,109,92Z"/></svg>