<svg xmlns="http://www.w3.org/2000/svg" xmlns:xlink="http://www.w3.org/1999/xlink" version="1.1" x="0px" y="0px" viewBox="0 0 100 100" style="enable-background:new 0 0 100 100;" xml:space="preserve"><style type="text/css">
	.st0{fill:#010101;}
	.st1{fill:none;}
</style><g><g><g><path class="st0" d="M86.1,63c0,4.5-3.7,8.2-8.2,8.2H16.6c-4.5,0-8.2-3.7-8.2-8.2V28.3c0-4.5,3.7-8.2,8.2-8.2h61.3     c4.5,0,8.2,3.7,8.2,8.2V63z M79,62.6V28.3c0-1-0.7-1.7-1.7-1.7H16.7c-1,0-1.7,0.8-1.7,1.7v34.3c0,1,0.8,1.7,1.7,1.7h60.6     C78.3,64.4,79,63.6,79,62.6z"/><path class="st0" d="M91.6,77c0,2.5-2.1,4.6-4.6,4.6H7c-2.5,0-4.6-2.1-4.6-4.6v-3.4h89.2L91.6,77L91.6,77z"/></g></g></g><g><g><g><polygon points="31.8,45.8 38.4,52.4 35.2,55.6 25.5,46 35,35.5 38.4,38.5    "/><polygon points="62.2,45.2 55.7,38.7 58.9,35.5 68.5,45.1 59,55.6 55.7,52.5    "/><polygon points="45.2,56.5 41,54.9 48.9,34.5 53.1,36.2    "/></g></g></g></svg>