<svg xmlns="http://www.w3.org/2000/svg" xmlns:xlink="http://www.w3.org/1999/xlink" version="1.1" x="0px" y="0px" viewBox="0 0 100 100" enable-background="new 0 0 100 100" xml:space="preserve"><path d="M50,72.5c-4.136,0-7.5,3.364-7.5,7.5s3.364,7.5,7.5,7.5s7.5-3.364,7.5-7.5S54.136,72.5,50,72.5z M50,82.5  c-1.379,0-2.5-1.121-2.5-2.5s1.121-2.5,2.5-2.5s2.5,1.121,2.5,2.5S51.379,82.5,50,82.5z"/><polygon points="46.465,27.071 50,23.535 53.535,27.071 57.07,23.536 53.535,20 57.07,16.464 53.535,12.929 50,16.465   46.465,12.929 42.93,16.464 46.465,20 42.93,23.536 "/><polygon points="18.535,27.071 22.07,23.536 18.535,20 22.07,16.464 18.535,12.929 15,16.465 11.465,12.929 7.93,16.464 11.465,20   7.93,23.536 11.465,27.071 15,23.535 "/><polygon points="82.5,18.964 79.268,15.732 75.732,19.268 82.5,26.036 91.768,16.768 88.232,13.232 "/><polygon points="82.5,47.5 52.5,47.5 52.5,32.5 47.5,32.5 47.5,47.5 17.5,47.5 17.5,32.5 12.5,32.5 12.5,52.5 47.5,52.5 47.5,67.5   52.5,67.5 52.5,52.5 87.5,52.5 87.5,32.5 82.5,32.5 "/></svg>